<svg class="fill-green-500" xmlns="http://www.w3.org/2000/svg" fill="none" viewBox="0 0 66 13"><path fill="currentColor" d="M6.797.263h1.02V3.2H6.481c-.884 0-1.505.21-1.884.62q-.567.617-.568 2.021v5.987H.925V.327h2l.557 1.41C4.25.746 5.366.262 6.797.262m11.816.042h2.326v11.501h-2.452l-.252-1.02q-1.579 1.357-3.725 1.357c-1.737 0-3.168-.579-4.315-1.736S8.48 7.797 8.48 6.05c0-1.737.568-3.168 1.715-4.325C11.342.579 12.773 0 14.51 0c1.462 0 2.714.474 3.767 1.41zM12.51 8.302c.59.6 1.337.895 2.231.895.905 0 1.652-.295 2.242-.895.589-.6.894-1.347.894-2.251 0-.905-.295-1.663-.894-2.252-.6-.6-1.337-.895-2.231-.895q-.9 0-1.61.41a2.94 2.94 0 0 0-1.116 1.127c-.273.473-.4 1.01-.4 1.61 0 .904.295 1.662.884 2.251M36.533.042c1.19 0 2.168.421 2.926 1.273q1.136 1.295 1.136 3.283v7.219h-3.104V5.114c0-1.557-.579-2.347-1.747-2.347-.452 0-.852.106-1.178.327-.337.22-.59.547-.758.968s-.252.936-.252 1.536v6.219h-3.042V5.114c0-1.557-.557-2.347-1.683-2.347-.705 0-1.263.253-1.663.748q-.6.741-.6 2.083v6.219h-3.104V.327h2.168l.579 1.43c.42-.526.936-.936 1.547-1.241a4.2 4.2 0 0 1 1.904-.463 3.9 3.9 0 0 1 1.957.494 3.5 3.5 0 0 1 1.358 1.358c.137-.2.294-.38.442-.548a3.5 3.5 0 0 1 .515-.442c.19-.136.38-.252.579-.357.2-.106.41-.2.631-.263.221-.074.442-.127.684-.169a2.6 2.6 0 0 1 .705-.084M48.53 12.143q-1.768 0-3.188-.79a5.67 5.67 0 0 1-2.22-2.177c-.537-.926-.8-1.957-.8-3.094 0-1.747.589-3.188 1.768-4.346C45.257.58 46.74 0 48.529 0c1.778 0 3.252.579 4.43 1.726s1.768 2.599 1.768 4.346c0 1.736-.59 3.177-1.778 4.335q-1.785 1.736-4.42 1.736m0-2.925c.894 0 1.62-.295 2.189-.884.568-.59.852-1.347.852-2.262 0-.926-.284-1.674-.852-2.263q-.855-.885-2.2-.884c-.904 0-1.63.295-2.199.884-.568.59-.852 1.347-.852 2.263 0 .452.074.883.22 1.273.148.4.359.726.632 1 .274.273.59.483.968.641.38.158.79.232 1.242.232m12.154 2.925c-.947 0-1.79-.168-2.526-.516q-1.089-.504-1.704-1.452c-.4-.62-.61-1.336-.61-2.146h3.02c.01.336.104.631.262.863s.39.4.674.515q.426.158.978.158c.295 0 .569-.042.81-.126s.442-.221.6-.39a.92.92 0 0 0 .232-.63c0-.359-.19-.622-.558-.79s-.926-.316-1.662-.442a15 15 0 0 1-1.158-.21 8 8 0 0 1-1.084-.369c-.42-.179-.757-.379-1-.61-.252-.232-.462-.537-.652-.937s-.273-.862-.273-1.389c0-1.073.42-1.957 1.273-2.64C58.157.346 59.273.01 60.66.01c1.39 0 2.494.347 3.347 1.052Q65.27 2.12 65.27 3.84h-2.956c0-.905-.58-1.358-1.726-1.358-.484 0-.863.095-1.126.295-.274.2-.4.473-.4.81 0 .137.042.274.116.39a.9.9 0 0 0 .273.284c.106.073.274.136.505.2.232.063.421.105.58.136q.233.048.704.127c.274.052.463.094.579.115s.305.064.579.116.473.105.61.158.316.116.558.2c.231.084.41.179.536.263.116.095.274.2.442.326.18.126.316.274.41.421.095.158.2.326.295.516s.169.4.2.642c.032.242.053.494.053.768 0 1.178-.442 2.115-1.315 2.82-.895.715-2.052 1.073-3.504 1.073"/></svg>